<svg xmlns="http://www.w3.org/2000/svg" viewBox="0 0 434.87 85.97"><defs><style>.cls-1,.cls-2{fill:#fff;}.cls-1{fill-rule:evenodd;}</style></defs><g id="Layer_2" data-name="Layer 2"><g id="Layer_1-2" data-name="Layer 1"><path class="cls-1" d="M44.07,0A44.08,44.08,0,0,0,30.13,85.89c2.21.38,3-.94,3-2.1s0-4.51,0-8.21c-11.07,2-13.94-2.7-14.82-5.17-.5-1.27-2.64-5.18-4.52-6.23-1.54-.83-3.74-2.86,0-2.92,3.47,0,6,3.2,6.77,4.52,4,6.66,10.31,4.79,12.84,3.63a9.27,9.27,0,0,1,2.81-5.89c-9.81-1.1-20-4.9-20-21.76A17.17,17.17,0,0,1,20.6,29.91,15.86,15.86,0,0,1,21,18.23s3.7-1.15,12.12,4.52a41.5,41.5,0,0,1,22,0c8.43-5.73,12.12-4.52,12.12-4.52a15.86,15.86,0,0,1,.44,11.68,17.07,17.07,0,0,1,4.52,11.85c0,16.91-10.3,20.66-20.11,21.76,1.6,1.38,3,4,3,8.15,0,5.9-.06,10.64-.06,12.12,0,1.16.83,2.54,3,2.1A44.1,44.1,0,0,0,44.07,0Z"/><path class="cls-2" d="M114.81,22.64h8a48.06,48.06,0,0,1,9.08.55,10.33,10.33,0,0,1,5.82,3.52A10,10,0,0,1,140,33.34a10.72,10.72,0,0,1-1.55,5.78A9.64,9.64,0,0,1,134,42.89a20.45,20.45,0,0,1-7.93,1.3l14.47,18.67h-5L121.1,44.19h-2.27V62.86h-4Zm4,3.94V40.25l6.93,0a17.21,17.21,0,0,0,6-.76,6.21,6.21,0,0,0,3-2.45,6.8,6.8,0,0,0,1.08-3.76,6.55,6.55,0,0,0-1.1-3.68,6.06,6.06,0,0,0-2.87-2.36,17.36,17.36,0,0,0-5.92-.71Z"/><path class="cls-2" d="M173,53l3.22,1.7a17.72,17.72,0,0,1-3.66,5,14.82,14.82,0,0,1-4.68,2.91,16.5,16.5,0,0,1-5.89,1q-7.28,0-11.38-4.77a16.09,16.09,0,0,1-4.11-10.79A15.89,15.89,0,0,1,150,38a14.18,14.18,0,0,1,11.79-5.63,14.66,14.66,0,0,1,12.15,5.77,16.06,16.06,0,0,1,3.29,10.17H150.44a12.14,12.14,0,0,0,3.31,8.5,10.56,10.56,0,0,0,7.91,3.31,12.6,12.6,0,0,0,4.42-.79,11.63,11.63,0,0,0,3.66-2.1A18,18,0,0,0,173,53Zm0-8a12.88,12.88,0,0,0-2.23-4.9,10.61,10.61,0,0,0-3.88-2.95A11.79,11.79,0,0,0,161.83,36a10.91,10.91,0,0,0-7.53,2.82A12.7,12.7,0,0,0,150.82,45Z"/><path class="cls-2" d="M214,33.11V62.86h-3.78V57.75a16.27,16.27,0,0,1-5.4,4.4,15.07,15.07,0,0,1-17.33-3.1A15.37,15.37,0,0,1,183,47.91a15.08,15.08,0,0,1,4.51-11,14.7,14.7,0,0,1,10.85-4.56A14,14,0,0,1,205,33.91a14.9,14.9,0,0,1,5.21,4.67V33.11ZM198.69,36a11.54,11.54,0,0,0-10.2,6,12,12,0,0,0-1.6,6,12.15,12.15,0,0,0,1.61,6,11.68,11.68,0,0,0,4.33,4.46,11.25,11.25,0,0,0,5.83,1.6,12,12,0,0,0,6-1.58,11.09,11.09,0,0,0,4.33-4.29,12.23,12.23,0,0,0,1.52-6.09,11.86,11.86,0,0,0-3.4-8.63A11.24,11.24,0,0,0,198.69,36Z"/><path class="cls-2" d="M251.47,39.29l-3,1.89A12.71,12.71,0,0,0,237.71,36a12.41,12.41,0,0,0-9,3.49,11.39,11.39,0,0,0-3.59,8.5,12.06,12.06,0,0,0,1.65,6.11,11.56,11.56,0,0,0,4.53,4.46,13.26,13.26,0,0,0,6.46,1.58,13.07,13.07,0,0,0,10.71-5.22l3,2a14.29,14.29,0,0,1-5.72,5,18.32,18.32,0,0,1-8.19,1.77,16.19,16.19,0,0,1-11.71-4.49,14.58,14.58,0,0,1-4.65-10.91,15.56,15.56,0,0,1,2.18-8,15.38,15.38,0,0,1,6-5.79,17.51,17.51,0,0,1,8.51-2.07,18.18,18.18,0,0,1,5.7.9,15.78,15.78,0,0,1,4.66,2.35A12.78,12.78,0,0,1,251.47,39.29Z"/><path class="cls-2" d="M262.17,22.07H266v11h6.07v3.31H266V62.86h-3.82V36.42h-5.23V33.11h5.23Z"/><path class="cls-2" d="M293.37,22.64h4V62.86h-4Z"/><path class="cls-2" d="M320.93,36.37l-2.46,2.54q-3.08-3-6-3a4.54,4.54,0,0,0-3.19,1.23A3.79,3.79,0,0,0,307.94,40,4.23,4.23,0,0,0,309,42.79a15.55,15.55,0,0,0,4.61,3.15,17.14,17.14,0,0,1,5.81,4.26,7.82,7.82,0,0,1,1.5,4.68,8.35,8.35,0,0,1-2.57,6.2A8.78,8.78,0,0,1,312,63.63,11.35,11.35,0,0,1,307,62.51a10.82,10.82,0,0,1-3.88-3.09l2.41-2.74Q308.5,60,311.78,60a5.58,5.58,0,0,0,3.92-1.48A4.55,4.55,0,0,0,317.32,55a4.44,4.44,0,0,0-1.07-2.92,17.19,17.19,0,0,0-4.82-3.18,15.26,15.26,0,0,1-5.48-4.1,7.72,7.72,0,0,1-1.46-4.62,7.52,7.52,0,0,1,2.32-5.63,8,8,0,0,1,5.85-2.24Q316.76,32.35,320.93,36.37Z"/><path class="cls-2" d="M342.67,36.37l-2.47,2.54q-3.06-3-6-3A4.52,4.52,0,0,0,331,37.16,3.79,3.79,0,0,0,329.68,40a4.23,4.23,0,0,0,1.09,2.76,15.41,15.41,0,0,0,4.61,3.15,17.14,17.14,0,0,1,5.81,4.26,7.82,7.82,0,0,1,1.5,4.68,8.39,8.39,0,0,1-2.57,6.2,8.78,8.78,0,0,1-6.44,2.55,11.34,11.34,0,0,1-4.91-1.12,10.73,10.73,0,0,1-3.88-3.09l2.41-2.74c1.95,2.21,4,3.31,6.22,3.31a5.6,5.6,0,0,0,3.92-1.48A4.55,4.55,0,0,0,339.06,55,4.44,4.44,0,0,0,338,52.12a17.12,17.12,0,0,0-4.83-3.18,15.44,15.44,0,0,1-5.48-4.1,7.78,7.78,0,0,1-1.45-4.62,7.48,7.48,0,0,1,2.32-5.63,8,8,0,0,1,5.84-2.24Q338.5,32.35,342.67,36.37Z"/><path class="cls-2" d="M349,33.11h3.83V47a29.86,29.86,0,0,0,.55,7,7.74,7.74,0,0,0,3.14,4.32A9.48,9.48,0,0,0,362,59.91a9.33,9.33,0,0,0,5.44-1.55,7.9,7.9,0,0,0,3.08-4.06,28.7,28.7,0,0,0,.58-7.3V33.11H375v14.6q0,6.16-1.44,9.27a11,11,0,0,1-4.32,4.88A13.59,13.59,0,0,1,362,63.63a13.75,13.75,0,0,1-7.26-1.77,10.85,10.85,0,0,1-4.35-4.92Q349,53.79,349,47.44Z"/><path class="cls-2" d="M408.54,53l3.22,1.7a17.91,17.91,0,0,1-3.66,5,14.82,14.82,0,0,1-4.68,2.91,16.5,16.5,0,0,1-5.89,1q-7.27,0-11.38-4.77A16.09,16.09,0,0,1,382,48.07,15.89,15.89,0,0,1,385.52,38a14.18,14.18,0,0,1,11.79-5.63,14.66,14.66,0,0,1,12.15,5.77,16.06,16.06,0,0,1,3.29,10.17H386a12.14,12.14,0,0,0,3.31,8.5,10.56,10.56,0,0,0,7.91,3.31,12.6,12.6,0,0,0,4.42-.79,11.63,11.63,0,0,0,3.66-2.1A18,18,0,0,0,408.54,53Zm0-8a12.88,12.88,0,0,0-2.23-4.9,10.61,10.61,0,0,0-3.88-2.95A11.82,11.82,0,0,0,397.37,36a10.91,10.91,0,0,0-7.53,2.82A12.7,12.7,0,0,0,386.36,45Z"/><path class="cls-2" d="M434.84,36.37l-2.46,2.54q-3.08-3-6-3a4.55,4.55,0,0,0-3.2,1.23A3.83,3.83,0,0,0,421.85,40a4.24,4.24,0,0,0,1.1,2.76,15.33,15.33,0,0,0,4.6,3.15q4.27,2.2,5.81,4.26a7.76,7.76,0,0,1,1.51,4.68,8.36,8.36,0,0,1-2.58,6.2,8.76,8.76,0,0,1-6.43,2.55,11.35,11.35,0,0,1-4.92-1.12,10.7,10.7,0,0,1-3.87-3.09l2.4-2.74c2,2.21,4,3.31,6.23,3.31a5.6,5.6,0,0,0,3.92-1.48A4.57,4.57,0,0,0,431.23,55a4.39,4.39,0,0,0-1.07-2.92,17.19,17.19,0,0,0-4.82-3.18,15.44,15.44,0,0,1-5.48-4.1,7.71,7.71,0,0,1-1.45-4.62,7.51,7.51,0,0,1,2.31-5.63,8,8,0,0,1,5.85-2.24Q430.68,32.35,434.84,36.37Z"/></g></g></svg>